<svg xmlns="http://www.w3.org/2000/svg" xmlns:xlink="http://www.w3.org/1999/xlink" width="64" zoomAndPan="magnify" viewBox="0 0 192 191.999996" height="64" preserveAspectRatio="xMidYMid meet" version="1.0"><defs><clipPath id="37425d6c8b"><path d="M 2.015625 0 L 191.765625 0 L 191.765625 189.75 L 2.015625 189.75 Z M 2.015625 0 " clip-rule="nonzero"/></clipPath></defs><g clip-path="url(#37425d6c8b)"><path fill="#000000" d="M 96.945312 0 C 123.066406 0 146.855469 10.671875 163.972656 27.789062 C 181.09375 45.019531 191.765625 68.695312 191.765625 94.929688 C 191.765625 121.054688 181.09375 144.839844 163.972656 161.960938 C 146.855469 179.078125 123.066406 189.75 96.945312 189.75 C 70.710938 189.75 47.035156 179.078125 29.804688 161.960938 C 12.6875 144.839844 2.015625 121.054688 2.015625 94.929688 C 2.015625 68.695312 12.6875 45.019531 29.804688 27.789062 C 47.035156 10.671875 70.710938 0 96.945312 0 Z M 160.863281 31.011719 C 144.519531 14.5625 121.84375 4.445312 96.945312 4.445312 C 71.933594 4.445312 49.367188 14.5625 33.027344 31.011719 C 16.578125 47.355469 6.460938 69.917969 6.460938 94.929688 C 6.460938 119.832031 16.578125 142.507812 33.027344 158.847656 C 49.367188 175.1875 71.933594 185.304688 96.945312 185.304688 C 121.84375 185.304688 144.519531 175.1875 160.863281 158.847656 C 177.203125 142.507812 187.316406 119.832031 187.316406 94.929688 C 187.316406 69.917969 177.203125 47.355469 160.863281 31.011719 Z M 160.863281 31.011719 " fill-opacity="1" fill-rule="nonzero"/></g><path fill="#000000" d="M 40.699219 35.570312 L 155.304688 92.929688 L 154.304688 94.929688 L 155.304688 92.929688 C 156.414062 93.484375 156.859375 94.820312 156.304688 95.929688 C 156.082031 96.375 155.636719 96.820312 155.082031 97.042969 L 40.476562 154.289062 L 39.476562 152.289062 L 40.476562 154.289062 C 39.363281 154.847656 38.03125 154.402344 37.472656 153.289062 C 37.363281 152.957031 37.253906 152.621094 37.253906 152.289062 L 37.253906 37.460938 C 37.253906 36.238281 38.253906 35.238281 39.476562 35.238281 C 39.917969 35.238281 40.363281 35.347656 40.699219 35.570312 Z M 149.414062 94.929688 L 41.699219 41.019531 L 41.699219 148.730469 Z M 155.082031 97.042969 C 154.527344 97.152344 153.859375 97.152344 153.304688 96.929688 Z M 155.082031 97.042969 " fill-opacity="1" fill-rule="nonzero"/><path fill="#000000" d="M 41.253906 36.015625 L 108.617188 117.164062 L 105.28125 120.050781 L 37.808594 38.90625 Z M 41.253906 36.015625 " fill-opacity="1" fill-rule="nonzero"/><path fill="#000000" d="M 108.617188 72.585938 L 41.253906 153.734375 L 37.808594 150.84375 L 105.28125 69.808594 Z M 108.617188 72.585938 " fill-opacity="1" fill-rule="nonzero"/><path fill="#5d9990" d="M 41.699219 146.175781 L 84.382812 94.929688 L 41.699219 43.574219 Z M 41.699219 146.175781 " fill-opacity="1" fill-rule="evenodd"/><path fill="#fd9596" d="M 87.273438 91.484375 L 103.390625 71.921875 L 47.921875 44.242188 Z M 87.273438 91.484375 " fill-opacity="1" fill-rule="evenodd"/><path fill="#fffdac" d="M 107.503906 115.828125 L 149.414062 94.929688 L 107.503906 73.921875 L 90.054688 94.929688 Z M 107.503906 115.828125 " fill-opacity="1" fill-rule="evenodd"/><path fill="#ffb586" d="M 47.921875 145.621094 L 103.390625 117.828125 L 87.273438 98.375 Z M 47.921875 145.621094 " fill-opacity="1" fill-rule="evenodd"/><path fill="#99d9fa" d="M 160.863281 158.847656 C 177.203125 142.507812 187.316406 119.832031 187.316406 94.929688 C 187.316406 69.917969 177.203125 47.355469 160.863281 31.011719 C 144.519531 14.5625 121.84375 4.445312 96.945312 4.445312 C 71.933594 4.445312 49.367188 14.5625 33.027344 31.011719 C 16.578125 47.355469 6.460938 69.917969 6.460938 94.929688 C 6.460938 119.832031 16.578125 142.507812 33.027344 158.847656 C 49.367188 175.1875 71.933594 185.304688 96.945312 185.304688 C 121.84375 185.304688 144.519531 175.1875 160.863281 158.847656 Z M 40.699219 35.570312 L 155.304688 92.929688 C 156.414062 93.484375 156.859375 94.820312 156.304688 95.929688 C 156.082031 96.375 155.636719 96.820312 155.082031 97.042969 L 40.476562 154.289062 C 39.363281 154.847656 38.03125 154.402344 37.472656 153.289062 C 37.363281 152.957031 37.253906 152.621094 37.253906 152.289062 L 37.253906 37.460938 C 37.253906 36.238281 38.253906 35.238281 39.476562 35.238281 C 39.917969 35.238281 40.363281 35.347656 40.699219 35.570312 Z M 40.699219 35.570312 " fill-opacity="1" fill-rule="evenodd"/></svg>