<svg xmlns="http://www.w3.org/2000/svg" xmlns:xlink="http://www.w3.org/1999/xlink" width="246" zoomAndPan="magnify" viewBox="0 0 123.75 30.000001" height="64" preserveAspectRatio="xMidYMid meet" version="1.0"><defs><g/><clipPath id="e8fdc99584"><path d="M 67 26 L 71 26 L 71 28.90625 L 67 28.90625 Z M 67 26 " clip-rule="nonzero"/></clipPath><clipPath id="fbf628e669"><path d="M 53 26 L 57 26 L 57 28.90625 L 53 28.90625 Z M 53 26 " clip-rule="nonzero"/></clipPath><clipPath id="5b99a40a58"><path d="M 60 26 L 64 26 L 64 28.90625 L 60 28.90625 Z M 60 26 " clip-rule="nonzero"/></clipPath><clipPath id="8756a33ecc"><path d="M 72 26 L 112.984375 26 L 112.984375 28 L 72 28 Z M 72 26 " clip-rule="nonzero"/></clipPath><clipPath id="b6c4450d59"><path d="M 10.648438 26 L 52 26 L 52 28 L 10.648438 28 Z M 10.648438 26 " clip-rule="nonzero"/></clipPath></defs><g clip-path="url(#e8fdc99584)"><path fill="#a700c3" d="M 68.652344 26.105469 L 69.25 26.941406 L 70.207031 27.179688 L 69.609375 27.898438 L 69.609375 28.851562 L 68.652344 28.613281 L 67.816406 28.851562 L 67.816406 27.898438 L 67.222656 27.179688 L 68.175781 26.941406 Z M 68.652344 26.105469 " fill-opacity="1" fill-rule="nonzero"/></g><g clip-path="url(#fbf628e669)"><path fill="#a700c3" d="M 55.285156 26.105469 L 55.882812 26.941406 L 56.835938 27.179688 L 56.242188 27.898438 L 56.242188 28.851562 L 55.285156 28.613281 L 54.449219 28.851562 L 54.449219 27.898438 L 53.855469 27.179688 L 54.808594 26.941406 Z M 55.285156 26.105469 " fill-opacity="1" fill-rule="nonzero"/></g><g clip-path="url(#5b99a40a58)"><path fill="#a700c3" d="M 61.96875 26.105469 L 62.566406 26.941406 L 63.402344 27.179688 L 62.804688 27.898438 L 62.804688 28.851562 L 61.96875 28.613281 L 61.015625 28.851562 L 61.015625 27.898438 L 60.539062 27.179688 L 61.375 26.941406 Z M 61.96875 26.105469 " fill-opacity="1" fill-rule="nonzero"/></g><g clip-path="url(#8756a33ecc)"><path fill="#a700c3" d="M 72.472656 27.898438 L 112.933594 27.539062 L 112.933594 27.300781 L 72.472656 26.941406 Z M 72.472656 27.898438 " fill-opacity="1" fill-rule="nonzero"/></g><g clip-path="url(#b6c4450d59)"><path fill="#a700c3" d="M 51.109375 27.898438 L 10.648438 27.539062 L 10.648438 27.300781 L 51.109375 26.941406 Z M 51.109375 27.898438 " fill-opacity="1" fill-rule="nonzero"/></g><g fill="#a700c3" fill-opacity="1"><g transform="translate(6.324555, 19.424629)"><g><path d="M 8.84375 -7.125 L 8.84375 -11.40625 L 11.09375 -11.40625 L 11.09375 0 L 8.84375 0 L 8.84375 -5.203125 L 3.734375 -5.203125 L 3.734375 0 L 1.484375 0 L 1.484375 -11.40625 L 3.734375 -11.40625 L 3.734375 -7.125 Z M 8.84375 -7.125 "/></g></g></g><g fill="#a700c3" fill-opacity="1"><g transform="translate(18.906718, 19.424629)"><g><path d="M 2.3125 -9.640625 C 1.925781 -9.640625 1.609375 -9.753906 1.359375 -9.984375 C 1.117188 -10.222656 1 -10.53125 1 -10.90625 C 1 -11.28125 1.117188 -11.582031 1.359375 -11.8125 C 1.609375 -12.050781 1.925781 -12.171875 2.3125 -12.171875 C 2.570312 -12.171875 2.800781 -12.113281 3 -12 C 3.207031 -11.894531 3.367188 -11.75 3.484375 -11.5625 C 3.597656 -11.375 3.65625 -11.15625 3.65625 -10.90625 C 3.65625 -10.664062 3.597656 -10.445312 3.484375 -10.25 C 3.367188 -10.0625 3.207031 -9.910156 3 -9.796875 C 2.800781 -9.691406 2.570312 -9.640625 2.3125 -9.640625 Z M 1.234375 0 L 1.234375 -8.609375 L 3.40625 -8.609375 L 3.40625 0 Z M 1.234375 0 "/></g></g></g><g fill="#a700c3" fill-opacity="1"><g transform="translate(23.540197, 19.424629)"><g><path d="M 4.03125 0.15625 C 3.4375 0.15625 2.894531 0.0859375 2.40625 -0.046875 C 1.914062 -0.179688 1.5 -0.367188 1.15625 -0.609375 C 0.8125 -0.847656 0.554688 -1.125 0.390625 -1.4375 L 1.59375 -2.734375 L 1.75 -2.734375 C 2.039062 -2.347656 2.378906 -2.054688 2.765625 -1.859375 C 3.160156 -1.671875 3.585938 -1.578125 4.046875 -1.578125 C 4.460938 -1.578125 4.773438 -1.648438 4.984375 -1.796875 C 5.203125 -1.953125 5.3125 -2.171875 5.3125 -2.453125 C 5.3125 -2.671875 5.234375 -2.851562 5.078125 -3 C 4.929688 -3.15625 4.6875 -3.273438 4.34375 -3.359375 L 3.203125 -3.625 C 2.347656 -3.832031 1.722656 -4.144531 1.328125 -4.5625 C 0.929688 -4.976562 0.734375 -5.507812 0.734375 -6.15625 C 0.734375 -6.695312 0.867188 -7.160156 1.140625 -7.546875 C 1.421875 -7.941406 1.804688 -8.242188 2.296875 -8.453125 C 2.796875 -8.660156 3.378906 -8.765625 4.046875 -8.765625 C 4.816406 -8.765625 5.457031 -8.648438 5.96875 -8.421875 C 6.476562 -8.203125 6.878906 -7.910156 7.171875 -7.546875 L 6.015625 -6.296875 L 5.859375 -6.296875 C 5.617188 -6.566406 5.347656 -6.765625 5.046875 -6.890625 C 4.742188 -7.015625 4.410156 -7.078125 4.046875 -7.078125 C 3.191406 -7.078125 2.765625 -6.8125 2.765625 -6.28125 C 2.765625 -6.050781 2.84375 -5.863281 3 -5.71875 C 3.15625 -5.582031 3.4375 -5.472656 3.84375 -5.390625 L 4.90625 -5.15625 C 5.78125 -4.96875 6.414062 -4.664062 6.8125 -4.25 C 7.21875 -3.832031 7.421875 -3.273438 7.421875 -2.578125 C 7.421875 -2.035156 7.285156 -1.554688 7.015625 -1.140625 C 6.742188 -0.722656 6.351562 -0.398438 5.84375 -0.171875 C 5.332031 0.046875 4.726562 0.15625 4.03125 0.15625 Z M 4.03125 0.15625 "/></g></g></g><g fill="#a700c3" fill-opacity="1"><g transform="translate(31.47328, 19.424629)"><g><path d="M 1.234375 0 L 1.234375 -8.609375 L 3.3125 -8.609375 L 3.3125 -7.34375 L 3.484375 -7.3125 C 4.015625 -8.28125 4.882812 -8.765625 6.09375 -8.765625 C 7.082031 -8.765625 7.804688 -8.492188 8.265625 -7.953125 C 8.734375 -7.421875 8.96875 -6.632812 8.96875 -5.59375 L 8.96875 0 L 6.8125 0 L 6.8125 -5.328125 C 6.8125 -5.898438 6.695312 -6.3125 6.46875 -6.5625 C 6.238281 -6.820312 5.875 -6.953125 5.375 -6.953125 C 4.75 -6.953125 4.265625 -6.75 3.921875 -6.34375 C 3.578125 -5.945312 3.40625 -5.316406 3.40625 -4.453125 L 3.40625 0 Z M 1.234375 0 "/></g></g></g><g fill="#a700c3" fill-opacity="1"><g transform="translate(41.551487, 19.424629)"><g><path d="M 3.9375 0.15625 C 2.96875 0.15625 2.253906 -0.101562 1.796875 -0.625 C 1.335938 -1.15625 1.109375 -1.914062 1.109375 -2.90625 L 1.109375 -8.609375 L 3.265625 -8.609375 L 3.265625 -3.171875 C 3.265625 -2.648438 3.378906 -2.265625 3.609375 -2.015625 C 3.835938 -1.773438 4.1875 -1.65625 4.65625 -1.65625 C 5.257812 -1.65625 5.726562 -1.851562 6.0625 -2.25 C 6.394531 -2.644531 6.5625 -3.265625 6.5625 -4.109375 L 6.5625 -8.609375 L 8.71875 -8.609375 L 8.71875 0 L 6.640625 0 L 6.640625 -1.265625 L 6.484375 -1.296875 C 6.203125 -0.804688 5.863281 -0.441406 5.46875 -0.203125 C 5.070312 0.0351562 4.5625 0.15625 3.9375 0.15625 Z M 3.9375 0.15625 "/></g></g></g><g fill="#a700c3" fill-opacity="1"><g transform="translate(51.504887, 19.424629)"><g><path d="M 3.578125 0.15625 C 2.796875 0.15625 2.203125 -0.0507812 1.796875 -0.46875 C 1.390625 -0.882812 1.1875 -1.519531 1.1875 -2.375 L 1.1875 -12.0625 L 3.34375 -12.0625 L 3.34375 -2.453125 C 3.34375 -1.929688 3.5625 -1.671875 4 -1.671875 C 4.125 -1.671875 4.257812 -1.691406 4.40625 -1.734375 L 4.515625 -1.703125 L 4.703125 -0.03125 C 4.585938 0.0195312 4.429688 0.0625 4.234375 0.09375 C 4.035156 0.132812 3.816406 0.15625 3.578125 0.15625 Z M 3.578125 0.15625 "/></g></g></g><g fill="#a700c3" fill-opacity="1"><g transform="translate(56.450384, 19.424629)"><g/></g></g><g fill="#a700c3" fill-opacity="1"><g transform="translate(60.218017, 19.424629)"><g><path d="M 3.546875 0 L 1.484375 0 L 1.484375 -11.40625 L 4.4375 -11.40625 L 7.328125 -3.015625 L 7.484375 -3.015625 L 10.359375 -11.40625 L 13.234375 -11.40625 L 13.234375 0 L 11.09375 0 L 11.09375 -7.546875 L 10.90625 -7.578125 L 8.265625 0 L 6.390625 0 L 3.75 -7.578125 L 3.546875 -7.546875 Z M 3.546875 0 "/></g></g></g><g fill="#a700c3" fill-opacity="1"><g transform="translate(74.937509, 19.424629)"><g><path d="M 3.9375 0.15625 C 2.96875 0.15625 2.253906 -0.101562 1.796875 -0.625 C 1.335938 -1.15625 1.109375 -1.914062 1.109375 -2.90625 L 1.109375 -8.609375 L 3.265625 -8.609375 L 3.265625 -3.171875 C 3.265625 -2.648438 3.378906 -2.265625 3.609375 -2.015625 C 3.835938 -1.773438 4.1875 -1.65625 4.65625 -1.65625 C 5.257812 -1.65625 5.726562 -1.851562 6.0625 -2.25 C 6.394531 -2.644531 6.5625 -3.265625 6.5625 -4.109375 L 6.5625 -8.609375 L 8.71875 -8.609375 L 8.71875 0 L 6.640625 0 L 6.640625 -1.265625 L 6.484375 -1.296875 C 6.203125 -0.804688 5.863281 -0.441406 5.46875 -0.203125 C 5.070312 0.0351562 4.5625 0.15625 3.9375 0.15625 Z M 3.9375 0.15625 "/></g></g></g><g fill="#a700c3" fill-opacity="1"><g transform="translate(84.890908, 19.424629)"><g><path d="M 4.03125 0.15625 C 3.4375 0.15625 2.894531 0.0859375 2.40625 -0.046875 C 1.914062 -0.179688 1.5 -0.367188 1.15625 -0.609375 C 0.8125 -0.847656 0.554688 -1.125 0.390625 -1.4375 L 1.59375 -2.734375 L 1.75 -2.734375 C 2.039062 -2.347656 2.378906 -2.054688 2.765625 -1.859375 C 3.160156 -1.671875 3.585938 -1.578125 4.046875 -1.578125 C 4.460938 -1.578125 4.773438 -1.648438 4.984375 -1.796875 C 5.203125 -1.953125 5.3125 -2.171875 5.3125 -2.453125 C 5.3125 -2.671875 5.234375 -2.851562 5.078125 -3 C 4.929688 -3.15625 4.6875 -3.273438 4.34375 -3.359375 L 3.203125 -3.625 C 2.347656 -3.832031 1.722656 -4.144531 1.328125 -4.5625 C 0.929688 -4.976562 0.734375 -5.507812 0.734375 -6.15625 C 0.734375 -6.695312 0.867188 -7.160156 1.140625 -7.546875 C 1.421875 -7.941406 1.804688 -8.242188 2.296875 -8.453125 C 2.796875 -8.660156 3.378906 -8.765625 4.046875 -8.765625 C 4.816406 -8.765625 5.457031 -8.648438 5.96875 -8.421875 C 6.476562 -8.203125 6.878906 -7.910156 7.171875 -7.546875 L 6.015625 -6.296875 L 5.859375 -6.296875 C 5.617188 -6.566406 5.347656 -6.765625 5.046875 -6.890625 C 4.742188 -7.015625 4.410156 -7.078125 4.046875 -7.078125 C 3.191406 -7.078125 2.765625 -6.8125 2.765625 -6.28125 C 2.765625 -6.050781 2.84375 -5.863281 3 -5.71875 C 3.15625 -5.582031 3.4375 -5.472656 3.84375 -5.390625 L 4.90625 -5.15625 C 5.78125 -4.96875 6.414062 -4.664062 6.8125 -4.25 C 7.21875 -3.832031 7.421875 -3.273438 7.421875 -2.578125 C 7.421875 -2.035156 7.285156 -1.554688 7.015625 -1.140625 C 6.742188 -0.722656 6.351562 -0.398438 5.84375 -0.171875 C 5.332031 0.046875 4.726562 0.15625 4.03125 0.15625 Z M 4.03125 0.15625 "/></g></g></g><g fill="#a700c3" fill-opacity="1"><g transform="translate(92.823992, 19.424629)"><g><path d="M 3.578125 0.15625 C 2.796875 0.15625 2.203125 -0.0507812 1.796875 -0.46875 C 1.390625 -0.882812 1.1875 -1.519531 1.1875 -2.375 L 1.1875 -12.0625 L 3.34375 -12.0625 L 3.34375 -2.453125 C 3.34375 -1.929688 3.5625 -1.671875 4 -1.671875 C 4.125 -1.671875 4.257812 -1.691406 4.40625 -1.734375 L 4.515625 -1.703125 L 4.703125 -0.03125 C 4.585938 0.0195312 4.429688 0.0625 4.234375 0.09375 C 4.035156 0.132812 3.816406 0.15625 3.578125 0.15625 Z M 3.578125 0.15625 "/></g></g></g><g fill="#a700c3" fill-opacity="1"><g transform="translate(97.769489, 19.424629)"><g><path d="M 2.3125 -9.640625 C 1.925781 -9.640625 1.609375 -9.753906 1.359375 -9.984375 C 1.117188 -10.222656 1 -10.53125 1 -10.90625 C 1 -11.28125 1.117188 -11.582031 1.359375 -11.8125 C 1.609375 -12.050781 1.925781 -12.171875 2.3125 -12.171875 C 2.570312 -12.171875 2.800781 -12.113281 3 -12 C 3.207031 -11.894531 3.367188 -11.75 3.484375 -11.5625 C 3.597656 -11.375 3.65625 -11.15625 3.65625 -10.90625 C 3.65625 -10.664062 3.597656 -10.445312 3.484375 -10.25 C 3.367188 -10.0625 3.207031 -9.910156 3 -9.796875 C 2.800781 -9.691406 2.570312 -9.640625 2.3125 -9.640625 Z M 1.234375 0 L 1.234375 -8.609375 L 3.40625 -8.609375 L 3.40625 0 Z M 1.234375 0 "/></g></g></g><g fill="#a700c3" fill-opacity="1"><g transform="translate(102.402968, 19.424629)"><g><path d="M 1.234375 0 L 1.234375 -8.609375 L 3.3125 -8.609375 L 3.3125 -7.453125 L 3.484375 -7.421875 C 3.765625 -7.878906 4.09375 -8.21875 4.46875 -8.4375 C 4.84375 -8.65625 5.328125 -8.765625 5.921875 -8.765625 C 6.566406 -8.765625 7.085938 -8.632812 7.484375 -8.375 C 7.878906 -8.125 8.164062 -7.753906 8.34375 -7.265625 L 8.515625 -7.265625 C 8.773438 -7.773438 9.113281 -8.148438 9.53125 -8.390625 C 9.957031 -8.640625 10.484375 -8.765625 11.109375 -8.765625 C 12.890625 -8.765625 13.78125 -7.773438 13.78125 -5.796875 L 13.78125 0 L 11.625 0 L 11.625 -5.515625 C 11.625 -6.023438 11.523438 -6.390625 11.328125 -6.609375 C 11.128906 -6.835938 10.8125 -6.953125 10.375 -6.953125 C 9.1875 -6.953125 8.59375 -6.15625 8.59375 -4.5625 L 8.59375 0 L 6.4375 0 L 6.4375 -5.515625 C 6.4375 -6.023438 6.332031 -6.390625 6.125 -6.609375 C 5.925781 -6.835938 5.609375 -6.953125 5.171875 -6.953125 C 4.617188 -6.953125 4.1875 -6.765625 3.875 -6.390625 C 3.5625 -6.015625 3.40625 -5.421875 3.40625 -4.609375 L 3.40625 0 Z M 1.234375 0 "/></g></g></g></svg>