<svg xmlns="http://www.w3.org/2000/svg" xmlns:xlink="http://www.w3.org/1999/xlink" width="300" zoomAndPan="magnify" viewBox="0 0 150 30.000001" height="64" preserveAspectRatio="xMidYMid meet" version="1.0"><defs><g/><clipPath id="87c68523ea"><path d="M 94 23.824219 L 98 23.824219 L 98 26.726562 L 94 26.726562 Z M 94 23.824219 " clip-rule="nonzero"/></clipPath><clipPath id="47b835e6ee"><path d="M 81 23.824219 L 85 23.824219 L 85 26.726562 L 81 26.726562 Z M 81 23.824219 " clip-rule="nonzero"/></clipPath><clipPath id="ed7a2f7cb1"><path d="M 87 23.824219 L 91 23.824219 L 91 26.726562 L 87 26.726562 Z M 87 23.824219 " clip-rule="nonzero"/></clipPath><clipPath id="1fb2f01cef"><path d="M 99 24 L 140.386719 24 L 140.386719 26 L 99 26 Z M 99 24 " clip-rule="nonzero"/></clipPath><clipPath id="dfdb197dc2"><path d="M 38.046875 24 L 79 24 L 79 26 L 38.046875 26 Z M 38.046875 24 " clip-rule="nonzero"/></clipPath><clipPath id="ff388ccf12"><path d="M 5.324219 2.265625 L 30 2.265625 L 30 26.945312 L 5.324219 26.945312 Z M 5.324219 2.265625 " clip-rule="nonzero"/></clipPath></defs><g clip-path="url(#87c68523ea)"><path fill="#a700c3" d="M 96.078125 23.929688 L 96.675781 24.753906 L 97.632812 24.988281 L 97.035156 25.699219 L 97.035156 26.640625 L 96.078125 26.40625 L 95.242188 26.640625 L 95.242188 25.699219 L 94.644531 24.988281 L 95.601562 24.753906 Z M 96.078125 23.929688 " fill-opacity="1" fill-rule="nonzero"/></g><g clip-path="url(#47b835e6ee)"><path fill="#a700c3" d="M 82.703125 23.929688 L 83.300781 24.753906 L 84.257812 24.988281 L 83.660156 25.699219 L 83.660156 26.640625 L 82.703125 26.40625 L 81.871094 26.640625 L 81.871094 25.699219 L 81.273438 24.988281 L 82.226562 24.753906 Z M 82.703125 23.929688 " fill-opacity="1" fill-rule="nonzero"/></g><g clip-path="url(#ed7a2f7cb1)"><path fill="#a700c3" d="M 89.390625 23.929688 L 89.988281 24.753906 L 90.824219 24.988281 L 90.226562 25.699219 L 90.226562 26.640625 L 89.390625 26.40625 L 88.4375 26.640625 L 88.4375 25.699219 L 87.957031 24.988281 L 88.792969 24.753906 Z M 89.390625 23.929688 " fill-opacity="1" fill-rule="nonzero"/></g><g clip-path="url(#1fb2f01cef)"><path fill="#a700c3" d="M 99.898438 25.699219 L 140.378906 25.34375 L 140.378906 25.109375 L 99.898438 24.753906 Z M 99.898438 25.699219 " fill-opacity="1" fill-rule="nonzero"/></g><g clip-path="url(#dfdb197dc2)"><path fill="#a700c3" d="M 78.527344 25.699219 L 38.046875 25.34375 L 38.046875 25.109375 L 78.527344 24.753906 Z M 78.527344 25.699219 " fill-opacity="1" fill-rule="nonzero"/></g><g fill="#a700c3" fill-opacity="1"><g transform="translate(33.719844, 17.247209)"><g><path d="M 8.84375 -7.125 L 8.84375 -11.40625 L 11.09375 -11.40625 L 11.09375 0 L 8.84375 0 L 8.84375 -5.203125 L 3.734375 -5.203125 L 3.734375 0 L 1.484375 0 L 1.484375 -11.40625 L 3.734375 -11.40625 L 3.734375 -7.125 Z M 8.84375 -7.125 "/></g></g></g><g fill="#a700c3" fill-opacity="1"><g transform="translate(46.302007, 17.247209)"><g><path d="M 2.3125 -9.640625 C 1.925781 -9.640625 1.609375 -9.753906 1.359375 -9.984375 C 1.117188 -10.222656 1 -10.53125 1 -10.90625 C 1 -11.28125 1.117188 -11.582031 1.359375 -11.8125 C 1.609375 -12.050781 1.925781 -12.171875 2.3125 -12.171875 C 2.570312 -12.171875 2.800781 -12.113281 3 -12 C 3.207031 -11.894531 3.367188 -11.75 3.484375 -11.5625 C 3.597656 -11.375 3.65625 -11.15625 3.65625 -10.90625 C 3.65625 -10.664062 3.597656 -10.445312 3.484375 -10.25 C 3.367188 -10.0625 3.207031 -9.910156 3 -9.796875 C 2.800781 -9.691406 2.570312 -9.640625 2.3125 -9.640625 Z M 1.234375 0 L 1.234375 -8.609375 L 3.40625 -8.609375 L 3.40625 0 Z M 1.234375 0 "/></g></g></g><g fill="#a700c3" fill-opacity="1"><g transform="translate(50.935486, 17.247209)"><g><path d="M 4.03125 0.15625 C 3.4375 0.15625 2.894531 0.0859375 2.40625 -0.046875 C 1.914062 -0.179688 1.5 -0.367188 1.15625 -0.609375 C 0.8125 -0.847656 0.554688 -1.125 0.390625 -1.4375 L 1.59375 -2.734375 L 1.75 -2.734375 C 2.039062 -2.347656 2.378906 -2.054688 2.765625 -1.859375 C 3.160156 -1.671875 3.585938 -1.578125 4.046875 -1.578125 C 4.460938 -1.578125 4.773438 -1.648438 4.984375 -1.796875 C 5.203125 -1.953125 5.3125 -2.171875 5.3125 -2.453125 C 5.3125 -2.671875 5.234375 -2.851562 5.078125 -3 C 4.929688 -3.15625 4.6875 -3.273438 4.34375 -3.359375 L 3.203125 -3.625 C 2.347656 -3.832031 1.722656 -4.144531 1.328125 -4.5625 C 0.929688 -4.976562 0.734375 -5.507812 0.734375 -6.15625 C 0.734375 -6.695312 0.867188 -7.160156 1.140625 -7.546875 C 1.421875 -7.941406 1.804688 -8.242188 2.296875 -8.453125 C 2.796875 -8.660156 3.378906 -8.765625 4.046875 -8.765625 C 4.816406 -8.765625 5.457031 -8.648438 5.96875 -8.421875 C 6.476562 -8.203125 6.878906 -7.910156 7.171875 -7.546875 L 6.015625 -6.296875 L 5.859375 -6.296875 C 5.617188 -6.566406 5.347656 -6.765625 5.046875 -6.890625 C 4.742188 -7.015625 4.410156 -7.078125 4.046875 -7.078125 C 3.191406 -7.078125 2.765625 -6.8125 2.765625 -6.28125 C 2.765625 -6.050781 2.84375 -5.863281 3 -5.71875 C 3.15625 -5.582031 3.4375 -5.472656 3.84375 -5.390625 L 4.90625 -5.15625 C 5.78125 -4.96875 6.414062 -4.664062 6.8125 -4.25 C 7.21875 -3.832031 7.421875 -3.273438 7.421875 -2.578125 C 7.421875 -2.035156 7.285156 -1.554688 7.015625 -1.140625 C 6.742188 -0.722656 6.351562 -0.398438 5.84375 -0.171875 C 5.332031 0.046875 4.726562 0.15625 4.03125 0.15625 Z M 4.03125 0.15625 "/></g></g></g><g fill="#a700c3" fill-opacity="1"><g transform="translate(58.86857, 17.247209)"><g><path d="M 1.234375 0 L 1.234375 -8.609375 L 3.3125 -8.609375 L 3.3125 -7.34375 L 3.484375 -7.3125 C 4.015625 -8.28125 4.882812 -8.765625 6.09375 -8.765625 C 7.082031 -8.765625 7.804688 -8.492188 8.265625 -7.953125 C 8.734375 -7.421875 8.96875 -6.632812 8.96875 -5.59375 L 8.96875 0 L 6.8125 0 L 6.8125 -5.328125 C 6.8125 -5.898438 6.695312 -6.3125 6.46875 -6.5625 C 6.238281 -6.820312 5.875 -6.953125 5.375 -6.953125 C 4.75 -6.953125 4.265625 -6.75 3.921875 -6.34375 C 3.578125 -5.945312 3.40625 -5.316406 3.40625 -4.453125 L 3.40625 0 Z M 1.234375 0 "/></g></g></g><g fill="#a700c3" fill-opacity="1"><g transform="translate(68.946776, 17.247209)"><g><path d="M 3.9375 0.15625 C 2.96875 0.15625 2.253906 -0.101562 1.796875 -0.625 C 1.335938 -1.15625 1.109375 -1.914062 1.109375 -2.90625 L 1.109375 -8.609375 L 3.265625 -8.609375 L 3.265625 -3.171875 C 3.265625 -2.648438 3.378906 -2.265625 3.609375 -2.015625 C 3.835938 -1.773438 4.1875 -1.65625 4.65625 -1.65625 C 5.257812 -1.65625 5.726562 -1.851562 6.0625 -2.25 C 6.394531 -2.644531 6.5625 -3.265625 6.5625 -4.109375 L 6.5625 -8.609375 L 8.71875 -8.609375 L 8.71875 0 L 6.640625 0 L 6.640625 -1.265625 L 6.484375 -1.296875 C 6.203125 -0.804688 5.863281 -0.441406 5.46875 -0.203125 C 5.070312 0.0351562 4.5625 0.15625 3.9375 0.15625 Z M 3.9375 0.15625 "/></g></g></g><g fill="#a700c3" fill-opacity="1"><g transform="translate(78.900176, 17.247209)"><g><path d="M 3.578125 0.15625 C 2.796875 0.15625 2.203125 -0.0507812 1.796875 -0.46875 C 1.390625 -0.882812 1.1875 -1.519531 1.1875 -2.375 L 1.1875 -12.0625 L 3.34375 -12.0625 L 3.34375 -2.453125 C 3.34375 -1.929688 3.5625 -1.671875 4 -1.671875 C 4.125 -1.671875 4.257812 -1.691406 4.40625 -1.734375 L 4.515625 -1.703125 L 4.703125 -0.03125 C 4.585938 0.0195312 4.429688 0.0625 4.234375 0.09375 C 4.035156 0.132812 3.816406 0.15625 3.578125 0.15625 Z M 3.578125 0.15625 "/></g></g></g><g fill="#a700c3" fill-opacity="1"><g transform="translate(83.845673, 17.247209)"><g/></g></g><g fill="#a700c3" fill-opacity="1"><g transform="translate(87.613306, 17.247209)"><g><path d="M 3.546875 0 L 1.484375 0 L 1.484375 -11.40625 L 4.4375 -11.40625 L 7.328125 -3.015625 L 7.484375 -3.015625 L 10.359375 -11.40625 L 13.234375 -11.40625 L 13.234375 0 L 11.09375 0 L 11.09375 -7.546875 L 10.90625 -7.578125 L 8.265625 0 L 6.390625 0 L 3.75 -7.578125 L 3.546875 -7.546875 Z M 3.546875 0 "/></g></g></g><g fill="#a700c3" fill-opacity="1"><g transform="translate(102.332798, 17.247209)"><g><path d="M 3.9375 0.15625 C 2.96875 0.15625 2.253906 -0.101562 1.796875 -0.625 C 1.335938 -1.15625 1.109375 -1.914062 1.109375 -2.90625 L 1.109375 -8.609375 L 3.265625 -8.609375 L 3.265625 -3.171875 C 3.265625 -2.648438 3.378906 -2.265625 3.609375 -2.015625 C 3.835938 -1.773438 4.1875 -1.65625 4.65625 -1.65625 C 5.257812 -1.65625 5.726562 -1.851562 6.0625 -2.25 C 6.394531 -2.644531 6.5625 -3.265625 6.5625 -4.109375 L 6.5625 -8.609375 L 8.71875 -8.609375 L 8.71875 0 L 6.640625 0 L 6.640625 -1.265625 L 6.484375 -1.296875 C 6.203125 -0.804688 5.863281 -0.441406 5.46875 -0.203125 C 5.070312 0.0351562 4.5625 0.15625 3.9375 0.15625 Z M 3.9375 0.15625 "/></g></g></g><g fill="#a700c3" fill-opacity="1"><g transform="translate(112.286197, 17.247209)"><g><path d="M 4.03125 0.15625 C 3.4375 0.15625 2.894531 0.0859375 2.40625 -0.046875 C 1.914062 -0.179688 1.5 -0.367188 1.15625 -0.609375 C 0.8125 -0.847656 0.554688 -1.125 0.390625 -1.4375 L 1.59375 -2.734375 L 1.75 -2.734375 C 2.039062 -2.347656 2.378906 -2.054688 2.765625 -1.859375 C 3.160156 -1.671875 3.585938 -1.578125 4.046875 -1.578125 C 4.460938 -1.578125 4.773438 -1.648438 4.984375 -1.796875 C 5.203125 -1.953125 5.3125 -2.171875 5.3125 -2.453125 C 5.3125 -2.671875 5.234375 -2.851562 5.078125 -3 C 4.929688 -3.15625 4.6875 -3.273438 4.34375 -3.359375 L 3.203125 -3.625 C 2.347656 -3.832031 1.722656 -4.144531 1.328125 -4.5625 C 0.929688 -4.976562 0.734375 -5.507812 0.734375 -6.15625 C 0.734375 -6.695312 0.867188 -7.160156 1.140625 -7.546875 C 1.421875 -7.941406 1.804688 -8.242188 2.296875 -8.453125 C 2.796875 -8.660156 3.378906 -8.765625 4.046875 -8.765625 C 4.816406 -8.765625 5.457031 -8.648438 5.96875 -8.421875 C 6.476562 -8.203125 6.878906 -7.910156 7.171875 -7.546875 L 6.015625 -6.296875 L 5.859375 -6.296875 C 5.617188 -6.566406 5.347656 -6.765625 5.046875 -6.890625 C 4.742188 -7.015625 4.410156 -7.078125 4.046875 -7.078125 C 3.191406 -7.078125 2.765625 -6.8125 2.765625 -6.28125 C 2.765625 -6.050781 2.84375 -5.863281 3 -5.71875 C 3.15625 -5.582031 3.4375 -5.472656 3.84375 -5.390625 L 4.90625 -5.15625 C 5.78125 -4.96875 6.414062 -4.664062 6.8125 -4.25 C 7.21875 -3.832031 7.421875 -3.273438 7.421875 -2.578125 C 7.421875 -2.035156 7.285156 -1.554688 7.015625 -1.140625 C 6.742188 -0.722656 6.351562 -0.398438 5.84375 -0.171875 C 5.332031 0.046875 4.726562 0.15625 4.03125 0.15625 Z M 4.03125 0.15625 "/></g></g></g><g fill="#a700c3" fill-opacity="1"><g transform="translate(120.219281, 17.247209)"><g><path d="M 3.578125 0.15625 C 2.796875 0.15625 2.203125 -0.0507812 1.796875 -0.46875 C 1.390625 -0.882812 1.1875 -1.519531 1.1875 -2.375 L 1.1875 -12.0625 L 3.34375 -12.0625 L 3.34375 -2.453125 C 3.34375 -1.929688 3.5625 -1.671875 4 -1.671875 C 4.125 -1.671875 4.257812 -1.691406 4.40625 -1.734375 L 4.515625 -1.703125 L 4.703125 -0.03125 C 4.585938 0.0195312 4.429688 0.0625 4.234375 0.09375 C 4.035156 0.132812 3.816406 0.15625 3.578125 0.15625 Z M 3.578125 0.15625 "/></g></g></g><g fill="#a700c3" fill-opacity="1"><g transform="translate(125.164778, 17.247209)"><g><path d="M 2.3125 -9.640625 C 1.925781 -9.640625 1.609375 -9.753906 1.359375 -9.984375 C 1.117188 -10.222656 1 -10.53125 1 -10.90625 C 1 -11.28125 1.117188 -11.582031 1.359375 -11.8125 C 1.609375 -12.050781 1.925781 -12.171875 2.3125 -12.171875 C 2.570312 -12.171875 2.800781 -12.113281 3 -12 C 3.207031 -11.894531 3.367188 -11.75 3.484375 -11.5625 C 3.597656 -11.375 3.65625 -11.15625 3.65625 -10.90625 C 3.65625 -10.664062 3.597656 -10.445312 3.484375 -10.25 C 3.367188 -10.0625 3.207031 -9.910156 3 -9.796875 C 2.800781 -9.691406 2.570312 -9.640625 2.3125 -9.640625 Z M 1.234375 0 L 1.234375 -8.609375 L 3.40625 -8.609375 L 3.40625 0 Z M 1.234375 0 "/></g></g></g><g fill="#a700c3" fill-opacity="1"><g transform="translate(129.798257, 17.247209)"><g><path d="M 1.234375 0 L 1.234375 -8.609375 L 3.3125 -8.609375 L 3.3125 -7.453125 L 3.484375 -7.421875 C 3.765625 -7.878906 4.09375 -8.21875 4.46875 -8.4375 C 4.84375 -8.65625 5.328125 -8.765625 5.921875 -8.765625 C 6.566406 -8.765625 7.085938 -8.632812 7.484375 -8.375 C 7.878906 -8.125 8.164062 -7.753906 8.34375 -7.265625 L 8.515625 -7.265625 C 8.773438 -7.773438 9.113281 -8.148438 9.53125 -8.390625 C 9.957031 -8.640625 10.484375 -8.765625 11.109375 -8.765625 C 12.890625 -8.765625 13.78125 -7.773438 13.78125 -5.796875 L 13.78125 0 L 11.625 0 L 11.625 -5.515625 C 11.625 -6.023438 11.523438 -6.390625 11.328125 -6.609375 C 11.128906 -6.835938 10.8125 -6.953125 10.375 -6.953125 C 9.1875 -6.953125 8.59375 -6.15625 8.59375 -4.5625 L 8.59375 0 L 6.4375 0 L 6.4375 -5.515625 C 6.4375 -6.023438 6.332031 -6.390625 6.125 -6.609375 C 5.925781 -6.835938 5.609375 -6.953125 5.171875 -6.953125 C 4.617188 -6.953125 4.1875 -6.765625 3.875 -6.390625 C 3.5625 -6.015625 3.40625 -5.421875 3.40625 -4.609375 L 3.40625 0 Z M 1.234375 0 "/></g></g></g><g clip-path="url(#ff388ccf12)"><path fill="#a700c3" d="M 17.527344 2.339844 C 17.53125 2.335938 17.53125 2.335938 17.535156 2.332031 C 17.601562 2.265625 17.707031 2.265625 17.773438 2.332031 L 21.214844 5.785156 L 26.25 5.84375 C 26.332031 5.84375 26.398438 5.902344 26.414062 5.980469 L 26.414062 5.984375 C 26.414062 5.992188 26.414062 6.003906 26.414062 6.011719 L 26.410156 10.886719 L 29.921875 14.480469 C 29.921875 14.484375 29.925781 14.484375 29.925781 14.488281 C 29.992188 14.554688 29.992188 14.660156 29.925781 14.726562 L 26.476562 18.167969 L 26.414062 23.191406 C 26.414062 23.195312 26.414062 23.199219 26.414062 23.199219 C 26.414062 23.292969 26.339844 23.367188 26.246094 23.367188 L 21.371094 23.363281 L 17.777344 26.875 C 17.777344 26.875 17.773438 26.878906 17.773438 26.878906 C 17.707031 26.945312 17.601562 26.945312 17.535156 26.878906 L 14.089844 23.429688 L 9.058594 23.367188 C 9.035156 23.367188 9.015625 23.363281 8.996094 23.355469 C 8.933594 23.332031 8.890625 23.273438 8.890625 23.199219 L 8.894531 18.324219 L 5.378906 14.722656 C 5.34375 14.6875 5.328125 14.640625 5.332031 14.59375 L 5.332031 14.574219 L 5.335938 14.570312 L 5.335938 14.558594 L 5.339844 14.554688 L 5.339844 14.546875 L 5.34375 14.542969 C 5.351562 14.523438 5.363281 14.503906 5.378906 14.488281 L 8.832031 11.042969 L 8.890625 6.015625 C 8.890625 6.015625 8.890625 6.011719 8.890625 6.011719 C 8.890625 5.917969 8.964844 5.84375 9.058594 5.84375 L 13.933594 5.847656 Z M 17.28125 26.148438 L 17.65625 26.523438 L 18.066406 26.121094 L 17.691406 25.742188 Z M 10.140625 22.507812 L 10.140625 23.046875 L 14.164062 23.09375 C 14.207031 23.09375 14.25 23.113281 14.277344 23.144531 L 17.042969 25.910156 L 17.453125 25.507812 L 14.488281 22.535156 Z M 17.929688 25.507812 L 18.308594 25.886719 L 21.1875 23.078125 C 21.21875 23.046875 21.261719 23.027344 21.304688 23.027344 L 25.214844 23.03125 L 25.21875 22.453125 L 21.023438 22.449219 Z M 17.613281 3.941406 L 14.46875 7.046875 C 14.4375 7.078125 14.394531 7.097656 14.351562 7.097656 L 10.085938 7.09375 L 10.058594 11.511719 C 10.058594 11.554688 10.039062 11.597656 10.007812 11.628906 L 6.988281 14.644531 L 10.09375 17.789062 C 10.125 17.820312 10.144531 17.863281 10.144531 17.90625 L 10.140625 22.175781 L 14.558594 22.203125 C 14.605469 22.203125 14.644531 22.21875 14.675781 22.25 L 17.691406 25.269531 L 20.835938 22.164062 C 20.867188 22.132812 20.910156 22.117188 20.953125 22.117188 L 25.222656 22.121094 L 25.25 17.699219 C 25.25 17.65625 25.265625 17.613281 25.296875 17.582031 L 28.316406 14.566406 L 25.210938 11.421875 C 25.179688 11.390625 25.164062 11.347656 25.164062 11.304688 L 25.167969 7.039062 L 20.746094 7.011719 C 20.703125 7.011719 20.660156 6.992188 20.628906 6.960938 Z M 9.226562 23.035156 L 9.804688 23.042969 L 9.804688 22.507812 L 9.226562 22.503906 Z M 25.550781 23.03125 L 26.082031 23.03125 L 26.089844 22.457031 L 25.554688 22.453125 Z M 6.75 14.882812 L 6.371094 15.261719 L 9.183594 18.140625 C 9.214844 18.171875 9.230469 18.210938 9.230469 18.257812 L 9.226562 22.167969 L 9.804688 22.171875 L 9.808594 17.976562 Z M 25.582031 17.769531 L 25.554688 22.121094 L 26.09375 22.121094 L 26.140625 18.097656 C 26.140625 18.054688 26.160156 18.011719 26.191406 17.980469 L 28.957031 15.21875 L 28.554688 14.804688 Z M 5.734375 14.609375 L 6.136719 15.019531 L 6.515625 14.644531 L 6.109375 14.230469 Z M 28.789062 14.570312 L 29.195312 14.980469 L 29.570312 14.605469 L 29.167969 14.191406 Z M 9.214844 7.09375 L 9.164062 11.113281 C 9.164062 11.160156 9.148438 11.199219 9.117188 11.230469 L 6.347656 13.996094 L 6.753906 14.40625 L 9.722656 11.441406 L 9.75 7.09375 Z M 25.496094 11.238281 L 28.554688 14.332031 L 28.933594 13.953125 L 26.125 11.074219 C 26.09375 11.042969 26.074219 11 26.074219 10.957031 L 26.078125 7.042969 L 25.5 7.039062 Z M 17 3.324219 L 14.121094 6.136719 C 14.089844 6.167969 14.046875 6.183594 14.003906 6.183594 L 10.089844 6.179688 L 10.085938 6.757812 L 14.285156 6.761719 L 17.378906 3.703125 Z M 9.21875 6.757812 L 9.75 6.757812 L 9.753906 6.179688 L 9.222656 6.179688 Z M 25.5 6.703125 L 26.078125 6.707031 L 26.078125 6.175781 L 25.503906 6.167969 Z M 18.261719 3.300781 L 17.851562 3.707031 L 20.816406 6.675781 L 25.167969 6.703125 L 25.167969 6.164062 L 21.144531 6.117188 C 21.101562 6.117188 21.058594 6.097656 21.027344 6.070312 Z M 17.238281 3.089844 L 17.617188 3.46875 L 18.027344 3.0625 L 17.652344 2.6875 Z M 17.238281 3.089844 " fill-opacity="1" fill-rule="evenodd"/></g></svg>