<svg xmlns="http://www.w3.org/2000/svg" xmlns:xlink="http://www.w3.org/1999/xlink" width="600" zoomAndPan="magnify" viewBox="0 0 450 74.999997" height="100" preserveAspectRatio="xMidYMid meet" version="1.0"><defs><clipPath id="c5d891f045"><path d="M 3.75 32 L 191 32 L 191 43 L 3.75 43 Z M 3.75 32 " clip-rule="nonzero"/></clipPath><clipPath id="9e9e5f7537"><path d="M 259 32 L 446.25 32 L 446.25 43 L 259 43 Z M 259 32 " clip-rule="nonzero"/></clipPath><clipPath id="22b540f903"><path d="M 216 24.628906 L 234 24.628906 L 234 50.105469 L 216 50.105469 Z M 216 24.628906 " clip-rule="nonzero"/></clipPath></defs><path fill="#f2c94c" d="M 203.421875 31.699219 C 205.285156 34.296875 209.945312 35.945312 214.207031 36.921875 C 214.871094 37.074219 215.542969 37.214844 216.230469 37.34375 C 215.542969 37.476562 214.871094 37.617188 214.207031 37.769531 C 209.945312 38.746094 205.285156 40.394531 203.421875 42.992188 C 201.5625 40.394531 196.902344 38.746094 192.640625 37.769531 C 191.976562 37.617188 191.304688 37.476562 190.617188 37.34375 C 191.304688 37.214844 191.976562 37.074219 192.640625 36.921875 C 196.902344 35.945312 201.5625 34.296875 203.421875 31.699219 Z M 203.421875 31.699219 " fill-opacity="1" fill-rule="evenodd"/><g clip-path="url(#c5d891f045)"><path fill="#f2c94c" d="M 165.0625 32.640625 C 168.777344 34.804688 178.074219 36.175781 186.585938 36.992188 C 187.90625 37.117188 189.253906 37.234375 190.621094 37.34375 C 189.253906 37.453125 187.90625 37.574219 186.585938 37.699219 C 178.078125 38.511719 168.777344 39.882812 165.0625 42.050781 C 138.261719 39.574219 65.945312 38.136719 3.75 37.34375 C 65.945312 36.554688 138.269531 35.117188 165.0625 32.640625 Z M 165.0625 32.640625 " fill-opacity="1" fill-rule="evenodd"/></g><path fill="#f2c94c" d="M 246.589844 31.699219 C 244.726562 34.296875 240.070312 35.945312 235.804688 36.921875 C 235.140625 37.074219 234.46875 37.214844 233.78125 37.34375 C 234.46875 37.476562 235.140625 37.617188 235.804688 37.769531 C 240.066406 38.746094 244.726562 40.390625 246.589844 42.992188 C 248.449219 40.390625 253.109375 38.746094 257.371094 37.769531 C 258.035156 37.617188 258.707031 37.476562 259.394531 37.34375 C 258.707031 37.214844 258.035156 37.074219 257.371094 36.921875 C 253.109375 35.945312 248.449219 34.296875 246.589844 31.699219 Z M 246.589844 31.699219 " fill-opacity="1" fill-rule="evenodd"/><g clip-path="url(#9e9e5f7537)"><path fill="#f2c94c" d="M 284.949219 32.640625 C 281.234375 34.804688 271.9375 36.175781 263.425781 36.992188 C 262.105469 37.117188 260.757812 37.234375 259.390625 37.34375 C 260.757812 37.453125 262.105469 37.574219 263.425781 37.699219 C 271.933594 38.511719 281.234375 39.882812 284.949219 42.050781 C 311.75 39.574219 384.066406 38.136719 446.261719 37.34375 C 384.066406 36.554688 311.742188 35.113281 284.949219 32.640625 Z M 284.949219 32.640625 " fill-opacity="1" fill-rule="evenodd"/></g><g clip-path="url(#22b540f903)"><path fill="#f2c94c" d="M 233.785156 37.34375 C 229.742188 35.503906 227.183594 30.894531 225.664062 26.679688 C 225.429688 26.023438 225.210938 25.355469 225.003906 24.679688 C 224.800781 25.355469 224.582031 26.023438 224.34375 26.679688 C 222.828125 30.894531 220.269531 35.503906 216.230469 37.34375 C 220.269531 39.1875 222.828125 43.792969 224.34375 48.011719 C 224.582031 48.667969 224.800781 49.332031 225.003906 50.011719 C 225.210938 49.332031 225.429688 48.667969 225.664062 48.011719 C 227.183594 43.792969 229.742188 39.183594 233.785156 37.34375 Z M 229.601562 37.34375 C 227.675781 35.644531 226.171875 33.421875 225.003906 31.089844 C 223.839844 33.421875 222.335938 35.644531 220.410156 37.34375 C 222.335938 39.046875 223.839844 41.269531 225.003906 43.601562 C 226.171875 41.269531 227.675781 39.046875 229.601562 37.34375 Z M 229.601562 37.34375 " fill-opacity="1" fill-rule="evenodd"/></g></svg>