<svg xmlns="http://www.w3.org/2000/svg" xmlns:xlink="http://www.w3.org/1999/xlink" zoomAndPan="magnify" preserveAspectRatio="xMidYMid meet" version="1.2" viewBox="17.28 60.54 865.44 29.13"><defs><clipPath id="2744fd9f53"><path d="M 434 60.5 L 465 60.5 L 465 89.75 L 434 89.75 Z M 434 60.5 "/></clipPath></defs><g id="327a1d36aa"><path style=" stroke:none;fill-rule:nonzero;fill:#ffefad;fill-opacity:1;" d="M 17.28125 67.292969 L 416.636719 67.292969 L 416.636719 71.230469 L 17.28125 71.230469 Z M 17.28125 67.292969 "/><path style=" stroke:none;fill-rule:nonzero;fill:#ffefad;fill-opacity:1;" d="M 17.28125 77.550781 L 416.636719 77.550781 L 416.636719 81.488281 L 17.28125 81.488281 Z M 17.28125 77.550781 "/><path style=" stroke:none;fill-rule:nonzero;fill:#ffefad;fill-opacity:1;" d="M 483.363281 67.292969 L 882.71875 67.292969 L 882.71875 71.230469 L 483.363281 71.230469 Z M 483.363281 67.292969 "/><path style=" stroke:none;fill-rule:nonzero;fill:#ffefad;fill-opacity:1;" d="M 483.363281 77.550781 L 882.71875 77.550781 L 882.71875 81.488281 L 483.363281 81.488281 Z M 483.363281 77.550781 "/><g clip-rule="nonzero" clip-path="url(#2744fd9f53)"><path style=" stroke:none;fill-rule:nonzero;fill:#ffefad;fill-opacity:1;" d="M 434.878906 75.101562 L 449.445312 60.535156 L 464.007812 75.101562 L 449.445312 89.664062 Z M 434.878906 75.101562 "/></g></g></svg>