<svg xmlns="http://www.w3.org/2000/svg" xmlns:xlink="http://www.w3.org/1999/xlink" width="600" zoomAndPan="magnify" viewBox="0 0 450 30.000001" height="40" preserveAspectRatio="xMidYMid meet" version="1.0"><defs><clipPath id="85f6cf9d40"><path d="M 109.828125 0.929688 L 305.796875 0.929688 L 305.796875 29.03125 L 109.828125 29.03125 Z M 109.828125 0.929688 " clip-rule="nonzero"/></clipPath></defs><g clip-path="url(#85f6cf9d40)"><path fill="#ffe48f" d="M 202.105469 8.085938 L 203.386719 9.371094 L 207.804688 4.90625 L 212.226562 9.351562 L 213.503906 8.085938 L 207.804688 2.335938 Z M 204.082031 10.074219 L 205.625 11.625 L 207.804688 9.433594 L 209.984375 11.625 L 211.527344 10.074219 L 207.804688 6.328125 Z M 278.972656 12.0625 C 279.011719 12.316406 279.082031 12.558594 279.183594 12.792969 C 279.285156 13.027344 279.414062 13.246094 279.570312 13.445312 C 279.722656 13.648438 279.902344 13.828125 280.101562 13.984375 C 280.300781 14.140625 280.519531 14.273438 280.75 14.375 C 280.980469 14.480469 281.222656 14.550781 281.472656 14.59375 C 281.722656 14.636719 281.976562 14.648438 282.230469 14.625 C 282.480469 14.605469 282.726562 14.554688 282.96875 14.472656 C 283.207031 14.390625 283.433594 14.277344 283.648438 14.140625 C 283.859375 14 284.050781 13.835938 284.226562 13.648438 C 284.398438 13.460938 284.542969 13.253906 284.664062 13.03125 C 284.785156 12.804688 284.875 12.570312 284.9375 12.320312 C 285 12.074219 285.03125 11.824219 285.03125 11.566406 C 285.03125 11.3125 285 11.0625 284.9375 10.8125 C 284.875 10.566406 284.785156 10.328125 284.664062 10.105469 C 284.542969 9.882812 284.398438 9.675781 284.226562 9.488281 C 284.050781 9.300781 283.859375 9.136719 283.648438 8.996094 C 283.433594 8.855469 283.207031 8.746094 282.96875 8.664062 C 282.726562 8.582031 282.480469 8.53125 282.230469 8.507812 C 281.976562 8.488281 281.722656 8.5 281.472656 8.542969 C 281.222656 8.582031 280.980469 8.65625 280.75 8.761719 C 280.519531 8.863281 280.300781 8.992188 280.101562 9.152344 C 279.902344 9.308594 279.722656 9.488281 279.570312 9.691406 C 279.414062 9.890625 279.285156 10.109375 279.183594 10.34375 C 279.082031 10.578125 279.011719 10.820312 278.972656 11.074219 L 282.472656 11.074219 L 282.472656 12.0625 Z M 136.640625 11.082031 C 136.597656 10.828125 136.527344 10.585938 136.425781 10.351562 C 136.324219 10.117188 136.195312 9.898438 136.042969 9.699219 C 135.886719 9.496094 135.707031 9.316406 135.507812 9.160156 C 135.308594 9 135.09375 8.871094 134.859375 8.769531 C 134.628906 8.664062 134.386719 8.59375 134.136719 8.550781 C 133.886719 8.507812 133.636719 8.496094 133.382812 8.515625 C 133.128906 8.539062 132.882812 8.589844 132.640625 8.671875 C 132.402344 8.753906 132.175781 8.863281 131.960938 9.003906 C 131.75 9.144531 131.558594 9.308594 131.386719 9.496094 C 131.214844 9.683594 131.066406 9.890625 130.945312 10.113281 C 130.824219 10.339844 130.734375 10.574219 130.671875 10.820312 C 130.609375 11.070312 130.578125 11.320312 130.578125 11.574219 C 130.578125 11.832031 130.609375 12.082031 130.671875 12.328125 C 130.734375 12.578125 130.824219 12.8125 130.945312 13.039062 C 131.066406 13.261719 131.214844 13.46875 131.386719 13.65625 C 131.558594 13.84375 131.75 14.007812 131.960938 14.148438 C 132.175781 14.285156 132.402344 14.398438 132.640625 14.480469 C 132.882812 14.5625 133.128906 14.613281 133.382812 14.636719 C 133.636719 14.65625 133.886719 14.644531 134.136719 14.601562 C 134.386719 14.558594 134.628906 14.488281 134.859375 14.382812 C 135.09375 14.28125 135.308594 14.148438 135.507812 13.992188 C 135.707031 13.835938 135.886719 13.65625 136.042969 13.453125 C 136.195312 13.253906 136.324219 13.035156 136.425781 12.800781 C 136.527344 12.566406 136.597656 12.324219 136.640625 12.070312 L 133.320312 12.070312 L 133.320312 11.082031 Z M 161.011719 16.804688 C 161.210938 15.742188 161.648438 14.792969 162.320312 13.953125 C 162.996094 13.113281 163.828125 12.480469 164.816406 12.0625 L 192.769531 12.0625 L 188.0625 16.804688 Z M 212.226562 10.757812 L 210.679688 12.308594 L 215.179688 16.832031 L 210.21875 21.828125 L 211.757812 23.382812 L 218.265625 16.832031 Z M 197.34375 16.832031 L 203.847656 23.382812 L 205.390625 21.828125 L 200.441406 16.832031 L 204.9375 12.308594 L 203.398438 10.757812 Z M 207.804688 24.257812 L 206.089844 22.53125 L 204.546875 24.082031 L 207.804688 27.359375 L 211.0625 24.082031 L 209.53125 22.53125 Z M 200.710938 8.085938 L 199.429688 6.800781 L 188.980469 17.300781 L 199.445312 27.824219 L 203.167969 24.082031 L 195.949219 16.832031 L 202.683594 10.074219 L 201.410156 8.789062 L 201.296875 8.902344 L 200.597656 8.199219 Z M 214.898438 8.085938 L 215.007812 8.199219 L 214.3125 8.882812 L 214.203125 8.769531 L 212.921875 10.074219 L 219.664062 16.832031 L 212.457031 24.082031 L 216.179688 27.824219 L 226.558594 17.386719 L 226.558594 17.230469 L 216.179688 6.777344 Z M 277.972656 12.0625 L 222.839844 12.0625 L 227.542969 16.796875 L 293.542969 16.796875 C 293.933594 16.761719 294.316406 16.6875 294.695312 16.578125 C 295.074219 16.46875 295.4375 16.324219 295.789062 16.148438 C 296.140625 15.972656 296.472656 15.761719 296.785156 15.523438 C 297.101562 15.285156 297.386719 15.019531 297.652344 14.726562 C 297.917969 14.433594 298.152344 14.121094 298.359375 13.78125 C 298.566406 13.445312 298.742188 13.09375 298.882812 12.726562 C 299.023438 12.355469 299.132812 11.976562 299.203125 11.589844 C 299.273438 11.199219 299.3125 10.808594 299.3125 10.414062 C 299.3125 10.832031 299.351562 11.25 299.433594 11.664062 C 299.511719 12.074219 299.632812 12.476562 299.792969 12.863281 C 299.953125 13.253906 300.148438 13.625 300.378906 13.972656 C 300.609375 14.324219 300.875 14.648438 301.167969 14.945312 C 301.464844 15.242188 301.785156 15.507812 302.132812 15.746094 C 302.480469 15.980469 302.84375 16.175781 303.230469 16.339844 C 303.617188 16.5 304.015625 16.625 304.425781 16.707031 C 304.835938 16.789062 305.25 16.832031 305.667969 16.832031 C 305.246094 16.832031 304.832031 16.875 304.421875 16.957031 C 304.011719 17.039062 303.613281 17.160156 303.226562 17.324219 C 302.839844 17.484375 302.472656 17.683594 302.125 17.917969 C 301.777344 18.152344 301.453125 18.417969 301.160156 18.714844 C 300.863281 19.011719 300.597656 19.335938 300.367188 19.6875 C 300.132812 20.035156 299.9375 20.40625 299.777344 20.796875 C 299.617188 21.183594 299.496094 21.585938 299.414062 22 C 299.332031 22.410156 299.292969 22.828125 299.292969 23.25 C 299.292969 22.699219 299.222656 22.15625 299.082031 21.621094 C 298.945312 21.089844 298.738281 20.582031 298.46875 20.101562 C 298.199219 19.621094 297.875 19.183594 297.492188 18.785156 C 297.113281 18.390625 296.6875 18.050781 296.21875 17.765625 L 296.21875 17.800781 L 227.542969 17.800781 L 216.179688 29.230469 L 211.757812 24.785156 L 207.808594 28.761719 L 203.855469 24.785156 L 199.429688 29.230469 L 188.0625 17.800781 L 160.921875 17.800781 L 160.921875 17.992188 C 160.921875 17.925781 160.921875 17.863281 160.921875 17.800781 L 119.851562 17.800781 L 119.851562 17.503906 C 119.320312 17.769531 118.835938 18.105469 118.398438 18.507812 C 117.960938 18.910156 117.585938 19.363281 117.273438 19.871094 C 116.960938 20.378906 116.722656 20.921875 116.5625 21.492188 C 116.398438 22.066406 116.316406 22.652344 116.320312 23.25 C 116.320312 22.828125 116.277344 22.410156 116.195312 22 C 116.113281 21.585938 115.992188 21.183594 115.832031 20.792969 C 115.671875 20.40625 115.476562 20.035156 115.242188 19.683594 C 115.011719 19.335938 114.746094 19.011719 114.449219 18.710938 C 114.152344 18.414062 113.832031 18.148438 113.484375 17.914062 C 113.136719 17.679688 112.769531 17.484375 112.382812 17.320312 C 111.992188 17.160156 111.59375 17.039062 111.183594 16.957031 C 110.773438 16.875 110.359375 16.832031 109.941406 16.832031 C 110.359375 16.832031 110.773438 16.792969 111.183594 16.710938 C 111.59375 16.628906 111.992188 16.507812 112.378906 16.34375 C 112.765625 16.183594 113.132812 15.988281 113.484375 15.753906 C 113.832031 15.519531 114.152344 15.253906 114.449219 14.957031 C 114.746094 14.65625 115.007812 14.332031 115.242188 13.984375 C 115.476562 13.632812 115.671875 13.265625 115.832031 12.875 C 115.992188 12.484375 116.113281 12.085938 116.195312 11.671875 C 116.277344 11.257812 116.316406 10.84375 116.320312 10.421875 C 116.320312 10.816406 116.355469 11.207031 116.425781 11.597656 C 116.5 11.984375 116.605469 12.363281 116.75 12.734375 C 116.890625 13.101562 117.0625 13.453125 117.269531 13.792969 C 117.476562 14.128906 117.714844 14.441406 117.976562 14.734375 C 118.242188 15.027344 118.53125 15.292969 118.84375 15.53125 C 119.15625 15.769531 119.488281 15.980469 119.839844 16.15625 C 120.191406 16.332031 120.558594 16.476562 120.933594 16.585938 C 121.3125 16.695312 121.695312 16.769531 122.089844 16.804688 L 160.792969 16.804688 C 160.597656 15.742188 160.164062 14.792969 159.488281 13.953125 C 158.8125 13.109375 157.980469 12.480469 156.992188 12.0625 L 137.628906 12.0625 C 137.585938 12.402344 137.503906 12.730469 137.378906 13.050781 C 137.253906 13.367188 137.09375 13.667969 136.894531 13.945312 C 136.695312 14.222656 136.464844 14.46875 136.203125 14.6875 C 135.941406 14.90625 135.65625 15.089844 135.347656 15.238281 C 135.042969 15.382812 134.722656 15.488281 134.386719 15.554688 C 134.050781 15.617188 133.714844 15.640625 133.375 15.621094 C 133.035156 15.597656 132.707031 15.535156 132.382812 15.429688 C 132.058594 15.324219 131.753906 15.179688 131.464844 14.996094 C 131.175781 14.8125 130.917969 14.597656 130.683594 14.347656 C 130.449219 14.101562 130.253906 13.824219 130.089844 13.523438 C 129.925781 13.226562 129.800781 12.910156 129.714844 12.578125 C 129.628906 12.246094 129.585938 11.910156 129.585938 11.566406 C 129.585938 11.226562 129.628906 10.886719 129.714844 10.558594 C 129.800781 10.226562 129.925781 9.910156 130.089844 9.609375 C 130.253906 9.308594 130.449219 9.035156 130.683594 8.785156 C 130.917969 8.539062 131.175781 8.320312 131.464844 8.136719 C 131.753906 7.953125 132.058594 7.8125 132.382812 7.707031 C 132.707031 7.601562 133.035156 7.539062 133.375 7.515625 C 133.714844 7.496094 134.050781 7.515625 134.386719 7.582031 C 134.722656 7.648438 135.042969 7.753906 135.347656 7.898438 C 135.65625 8.046875 135.941406 8.226562 136.203125 8.445312 C 136.464844 8.664062 136.695312 8.914062 136.894531 9.191406 C 137.09375 9.46875 137.253906 9.765625 137.378906 10.085938 C 137.503906 10.402344 137.585938 10.734375 137.628906 11.074219 L 156.992188 11.074219 C 157.574219 10.828125 158.105469 10.507812 158.589844 10.105469 C 159.078125 9.703125 159.496094 9.238281 159.84375 8.714844 C 160.191406 8.1875 160.460938 7.621094 160.644531 7.015625 C 160.828125 6.414062 160.917969 5.792969 160.921875 5.160156 C 160.921875 5.792969 161.011719 6.414062 161.191406 7.019531 C 161.375 7.625 161.640625 8.1875 161.988281 8.714844 C 162.335938 9.242188 162.753906 9.707031 163.238281 10.109375 C 163.722656 10.511719 164.253906 10.835938 164.832031 11.082031 L 193.769531 11.082031 L 199.445312 5.371094 L 201.421875 7.359375 L 207.804688 0.929688 L 214.203125 7.363281 L 216.175781 5.375 L 221.847656 11.085938 L 277.96875 11.085938 C 278.007812 10.746094 278.089844 10.414062 278.214844 10.097656 C 278.339844 9.777344 278.5 9.480469 278.703125 9.203125 C 278.902344 8.921875 279.132812 8.675781 279.394531 8.457031 C 279.65625 8.238281 279.941406 8.054688 280.246094 7.90625 C 280.554688 7.761719 280.875 7.65625 281.210938 7.589844 C 281.546875 7.523438 281.882812 7.503906 282.222656 7.523438 C 282.5625 7.546875 282.894531 7.609375 283.21875 7.714844 C 283.542969 7.820312 283.847656 7.964844 284.136719 8.148438 C 284.421875 8.328125 284.683594 8.546875 284.917969 8.796875 C 285.152344 9.046875 285.351562 9.320312 285.515625 9.621094 C 285.679688 9.921875 285.804688 10.234375 285.886719 10.566406 C 285.972656 10.898438 286.015625 11.238281 286.015625 11.578125 C 286.015625 11.921875 285.972656 12.257812 285.886719 12.589844 C 285.804688 12.921875 285.679688 13.238281 285.515625 13.539062 C 285.351562 13.839844 285.152344 14.113281 284.917969 14.363281 C 284.683594 14.613281 284.421875 14.828125 284.136719 15.011719 C 283.847656 15.195312 283.542969 15.339844 283.21875 15.445312 C 282.894531 15.550781 282.5625 15.613281 282.222656 15.636719 C 281.882812 15.65625 281.546875 15.632812 281.210938 15.570312 C 280.875 15.503906 280.554688 15.398438 280.246094 15.253906 C 279.941406 15.105469 279.65625 14.921875 279.394531 14.703125 C 279.132812 14.484375 278.902344 14.234375 278.703125 13.957031 C 278.5 13.679688 278.339844 13.382812 278.214844 13.0625 C 278.089844 12.746094 278.007812 12.414062 277.96875 12.074219 Z M 277.972656 12.0625 " fill-opacity="1" fill-rule="evenodd"/></g></svg>