<svg xmlns="http://www.w3.org/2000/svg" xmlns:xlink="http://www.w3.org/1999/xlink" width="600" zoomAndPan="magnify" viewBox="0 0 450 30.000001" height="40" preserveAspectRatio="xMidYMid meet" version="1.0"><defs><clipPath id="290bd5fef9"><path d="M 39.660156 1 L 410.546875 1 L 410.546875 28 L 39.660156 28 Z M 39.660156 1 " clip-rule="nonzero"/></clipPath></defs><g clip-path="url(#290bd5fef9)"><path fill="#f2c94c" d="M 411.652344 14.402344 C 411.625 14.242188 411.53125 14.105469 411.40625 14 C 411.113281 11.636719 409.953125 9.382812 408.015625 7.9375 C 405.597656 6.128906 401.824219 5.898438 399.445312 7.902344 C 398.234375 8.921875 397.664062 10.492188 397.738281 12.050781 C 397.839844 14.148438 399.003906 15.851562 400.761719 16.949219 C 401.574219 17.453125 402.488281 17.8125 403.421875 18.015625 C 404.464844 18.242188 404.910156 16.640625 403.863281 16.414062 C 402.167969 16.046875 400.355469 15.054688 399.675781 13.367188 C 399.53125 13.015625 399.445312 12.628906 399.414062 12.257812 C 399.398438 12.054688 399.394531 11.847656 399.398438 11.644531 C 399.402344 11.4375 399.421875 11.214844 399.441406 11.109375 C 399.496094 10.8125 399.636719 10.378906 399.703125 10.238281 C 399.875 9.894531 400.03125 9.660156 400.210938 9.464844 C 401.046875 8.550781 402.28125 8.160156 403.53125 8.15625 C 404.882812 8.148438 406.246094 8.574219 407.328125 9.5 C 409.75 11.5625 410.511719 15.34375 409.214844 18.183594 C 407.699219 21.5 403.90625 22.589844 400.503906 22.148438 C 398.59375 21.902344 396.722656 21.226562 395.0625 20.246094 C 393.1875 19.140625 391.558594 17.648438 390.03125 16.101562 C 386.859375 12.882812 384.089844 9.199219 380.335938 6.605469 C 376.871094 4.214844 372.355469 2.59375 368.175781 3.894531 C 367.503906 3.097656 366.65625 2.4375 365.785156 1.976562 C 364.066406 1.078125 362.007812 0.765625 360.128906 1.316406 C 358.140625 1.894531 356.554688 3.269531 354.75 4.21875 C 354.175781 4.523438 353.574219 4.761719 352.941406 4.878906 C 320.222656 4.878906 287.503906 4.878906 254.789062 4.878906 C 221.671875 4.878906 188.558594 4.878906 155.441406 4.878906 C 136.761719 4.878906 118.082031 4.878906 99.402344 4.878906 C 98.921875 4.878906 98.660156 5.214844 98.609375 5.582031 C 98.53125 5.25 98.273438 4.964844 97.835938 4.957031 C 95.847656 4.914062 94.191406 3.53125 92.5625 2.546875 C 91.703125 2.027344 90.796875 1.550781 89.824219 1.289062 C 88.84375 1.019531 87.824219 0.992188 86.824219 1.140625 C 85.035156 1.398438 83.15625 2.429688 81.914062 3.882812 C 80.898438 3.574219 79.824219 3.4375 78.808594 3.429688 C 76.617188 3.421875 74.476562 4.050781 72.511719 4.984375 C 68.339844 6.964844 65.285156 10.417969 62.222656 13.765625 C 59.398438 16.859375 56.371094 20.101562 52.304688 21.488281 C 49.003906 22.613281 44.878906 22.710938 42.210938 20.121094 C 39.875 17.851562 39.679688 14.042969 41.25 11.292969 C 41.660156 10.578125 42.164062 9.960938 42.8125 9.429688 C 43.375 8.972656 44.027344 8.640625 44.660156 8.441406 C 45.941406 8.039062 47.253906 8.019531 48.523438 8.535156 C 48.554688 8.554688 48.65625 8.597656 48.660156 8.597656 C 48.734375 8.632812 48.804688 8.671875 48.875 8.710938 C 48.996094 8.773438 49.113281 8.84375 49.222656 8.917969 C 49.445312 9.066406 49.648438 9.242188 49.902344 9.523438 C 50.03125 9.660156 50.214844 9.945312 50.355469 10.234375 C 50.386719 10.292969 50.4375 10.417969 50.492188 10.589844 C 50.554688 10.789062 50.601562 10.992188 50.632812 11.199219 C 50.726562 11.785156 50.660156 12.71875 50.382812 13.382812 C 50.042969 14.207031 49.390625 14.894531 48.65625 15.386719 C 47.902344 15.890625 47.078125 16.222656 46.195312 16.410156 C 45.152344 16.636719 45.59375 18.242188 46.636719 18.015625 C 48.570312 17.59375 50.46875 16.488281 51.523438 14.773438 C 52.488281 13.21875 52.59375 11.128906 51.824219 9.472656 C 50.511719 6.632812 46.769531 5.960938 44.046875 6.894531 C 40.976562 7.949219 39.054688 10.871094 38.660156 14 C 38.53125 14.101562 38.4375 14.238281 38.414062 14.402344 C 37.59375 19.316406 40.4375 24.519531 44.980469 26.5625 C 50.371094 28.992188 56.46875 26.363281 60.203125 22.21875 C 62.445312 19.730469 64.035156 16.753906 65.339844 13.691406 C 65.460938 13.402344 65.46875 13.089844 65.324219 12.839844 C 65.375 12.785156 65.425781 12.730469 65.476562 12.675781 C 68.441406 9.5 71.796875 6.5 76.121094 5.429688 C 77.707031 5.035156 79.375 4.972656 80.957031 5.363281 C 80.457031 6.457031 80.316406 7.679688 80.742188 8.949219 C 81.003906 9.730469 81.484375 10.523438 82.242188 10.910156 C 83.035156 11.316406 84.019531 11.277344 84.761719 10.761719 C 85.597656 10.1875 86.046875 9.179688 86.054688 8.183594 C 86.0625 7.148438 85.539062 6.179688 84.800781 5.484375 C 84.421875 5.128906 84 4.824219 83.542969 4.570312 C 83.898438 4.214844 84.296875 3.898438 84.726562 3.636719 C 86.21875 2.734375 88.046875 2.4375 89.71875 2.992188 C 91.609375 3.621094 93.121094 5.035156 94.90625 5.875 C 95.839844 6.3125 96.804688 6.601562 97.839844 6.621094 C 98.320312 6.632812 98.582031 6.304688 98.632812 5.9375 C 98.710938 6.265625 98.964844 6.546875 99.40625 6.546875 C 132.519531 6.546875 165.632812 6.546875 198.75 6.546875 C 231.867188 6.546875 264.980469 6.546875 298.097656 6.546875 C 316.019531 6.546875 333.933594 6.546875 351.855469 6.546875 C 351.960938 6.597656 352.082031 6.625 352.226562 6.621094 C 352.507812 6.617188 352.785156 6.589844 353.050781 6.546875 C 353.414062 6.546875 353.777344 6.546875 354.140625 6.546875 C 354.558594 6.546875 354.8125 6.289062 354.902344 5.980469 C 355.933594 5.519531 356.902344 4.886719 357.863281 4.28125 C 359.445312 3.289062 361.101562 2.453125 363.023438 2.78125 C 364.339844 3.003906 365.605469 3.632812 366.546875 4.589844 C 365.144531 5.363281 363.9375 6.597656 364.019531 8.289062 C 364.070312 9.289062 364.527344 10.269531 365.386719 10.820312 C 366.128906 11.292969 367.140625 11.316406 367.898438 10.878906 C 369.421875 9.992188 369.828125 7.804688 369.421875 6.214844 C 369.347656 5.921875 369.246094 5.640625 369.121094 5.367188 C 369.777344 5.203125 370.449219 5.109375 371.128906 5.097656 C 375.402344 5.027344 379.359375 7.542969 382.34375 10.390625 C 383.171875 11.175781 383.964844 12 384.738281 12.839844 C 384.59375 13.089844 384.605469 13.40625 384.726562 13.695312 C 387.007812 19.070312 390.375 24.308594 396.003906 26.570312 C 398.554688 27.597656 401.527344 27.871094 404.152344 26.945312 C 406.5 26.117188 408.484375 24.480469 409.863281 22.417969 C 411.4375 20.066406 412.117188 17.199219 411.652344 14.402344 Z M 53.855469 24.867188 C 51.621094 25.847656 49.03125 26.183594 46.679688 25.449219 C 44.835938 24.875 43.207031 23.648438 42.03125 22.117188 C 42.757812 22.636719 43.558594 23.050781 44.410156 23.34375 C 48.082031 24.613281 52.339844 23.675781 55.636719 21.800781 C 58.226562 20.328125 60.367188 18.230469 62.398438 16.042969 C 60.441406 19.757812 57.789062 23.136719 53.855469 24.867188 Z M 84.167969 7.34375 C 84.511719 7.96875 84.457031 8.78125 83.976562 9.265625 C 83.757812 9.484375 83.554688 9.542969 83.273438 9.527344 C 83.253906 9.527344 83.25 9.527344 83.238281 9.527344 C 83.226562 9.523438 83.207031 9.515625 83.171875 9.503906 C 83.152344 9.5 82.929688 9.402344 83.074219 9.476562 C 82.882812 9.378906 82.914062 9.398438 82.789062 9.273438 C 82.382812 8.851562 82.171875 8.152344 82.15625 7.492188 C 82.144531 6.921875 82.28125 6.421875 82.535156 5.925781 C 83.191406 6.25 83.8125 6.703125 84.167969 7.34375 Z M 367.902344 7.589844 C 367.886719 7.917969 367.824219 8.234375 367.691406 8.597656 C 367.597656 8.855469 367.4375 9.121094 367.210938 9.332031 C 367.105469 9.425781 366.90625 9.519531 366.789062 9.527344 C 366.480469 9.542969 366.25 9.464844 366.019531 9.195312 C 365.566406 8.664062 365.570312 7.867188 365.957031 7.238281 C 366.308594 6.652344 366.898438 6.226562 367.519531 5.921875 C 367.796875 6.457031 367.925781 6.96875 367.902344 7.589844 Z M 404.089844 25.199219 C 399.234375 27.191406 393.9375 24.410156 390.757812 20.730469 C 389.515625 19.292969 388.496094 17.675781 387.617188 15.984375 C 388.972656 17.4375 390.367188 18.839844 391.929688 20.070312 C 395.058594 22.542969 398.980469 24.210938 403.035156 23.867188 C 404.851562 23.714844 406.597656 23.148438 408.074219 22.078125 C 407.03125 23.449219 405.652344 24.554688 404.089844 25.199219 Z M 404.089844 25.199219 " fill-opacity="1" fill-rule="nonzero"/></g></svg>