<svg xmlns="http://www.w3.org/2000/svg" xmlns:xlink="http://www.w3.org/1999/xlink" width="600" zoomAndPan="magnify" viewBox="0 0 450 30.000001" height="40" preserveAspectRatio="xMidYMid meet" version="1.0"><defs><clipPath id="f458318ca2"><path d="M 10.160156 10 L 192 10 L 192 20 L 10.160156 20 Z M 10.160156 10 " clip-rule="nonzero"/></clipPath><clipPath id="4cf80a133a"><path d="M 258 10 L 439.839844 10 L 439.839844 20 L 258 20 Z M 258 10 " clip-rule="nonzero"/></clipPath><clipPath id="774dabec5d"><path d="M 216 2.015625 L 234 2.015625 L 234 26.695312 L 216 26.695312 Z M 216 2.015625 " clip-rule="nonzero"/></clipPath></defs><path fill="#f2c94c" d="M 204.050781 9.0625 C 205.855469 11.652344 210.378906 13.289062 214.519531 14.265625 C 215.164062 14.414062 215.816406 14.554688 216.484375 14.6875 C 215.816406 14.816406 215.164062 14.957031 214.519531 15.109375 C 210.378906 16.082031 205.855469 17.722656 204.050781 20.308594 C 202.242188 17.722656 197.71875 16.082031 193.578125 15.109375 C 192.933594 14.957031 192.28125 14.816406 191.613281 14.6875 C 192.28125 14.554688 192.933594 14.414062 193.578125 14.265625 C 197.71875 13.289062 202.242188 11.652344 204.050781 9.0625 Z M 204.050781 9.0625 " fill-opacity="1" fill-rule="evenodd"/><g clip-path="url(#f458318ca2)"><path fill="#f2c94c" d="M 166.800781 10 C 170.40625 12.15625 179.433594 13.523438 187.699219 14.335938 C 188.980469 14.460938 190.289062 14.578125 191.617188 14.6875 C 190.289062 14.796875 188.980469 14.914062 187.699219 15.039062 C 179.4375 15.847656 170.40625 17.214844 166.800781 19.371094 C 140.777344 16.90625 70.554688 15.476562 10.160156 14.6875 C 70.554688 13.898438 140.78125 12.464844 166.800781 10 Z M 166.800781 10 " fill-opacity="1" fill-rule="evenodd"/></g><path fill="#f2c94c" d="M 245.964844 9.0625 C 244.15625 11.652344 239.632812 13.289062 235.492188 14.265625 C 234.847656 14.414062 234.195312 14.554688 233.527344 14.6875 C 234.195312 14.816406 234.847656 14.957031 235.492188 15.109375 C 239.628906 16.082031 244.15625 17.722656 245.964844 20.308594 C 247.769531 17.722656 252.292969 16.082031 256.433594 15.109375 C 257.078125 14.957031 257.730469 14.816406 258.398438 14.6875 C 257.730469 14.554688 257.078125 14.414062 256.433594 14.265625 C 252.292969 13.289062 247.769531 11.652344 245.964844 9.0625 Z M 245.964844 9.0625 " fill-opacity="1" fill-rule="evenodd"/><g clip-path="url(#4cf80a133a)"><path fill="#f2c94c" d="M 283.210938 10 C 279.605469 12.15625 270.578125 13.523438 262.3125 14.335938 C 261.03125 14.460938 259.722656 14.578125 258.394531 14.6875 C 259.722656 14.796875 261.03125 14.914062 262.3125 15.039062 C 270.574219 15.847656 279.605469 17.214844 283.210938 19.371094 C 309.234375 16.90625 379.457031 15.476562 439.851562 14.6875 C 379.457031 13.898438 309.230469 12.464844 283.210938 10 Z M 283.210938 10 " fill-opacity="1" fill-rule="evenodd"/></g><g clip-path="url(#774dabec5d)"><path fill="#f2c94c" d="M 233.527344 14.6875 C 229.605469 12.855469 227.121094 8.261719 225.644531 4.0625 C 225.417969 3.410156 225.203125 2.746094 225.003906 2.074219 C 224.804688 2.746094 224.59375 3.410156 224.363281 4.0625 C 222.890625 8.261719 220.40625 12.851562 216.484375 14.6875 C 220.40625 16.519531 222.890625 21.109375 224.363281 25.3125 C 224.59375 25.960938 224.804688 26.625 225.003906 27.300781 C 225.203125 26.625 225.417969 25.960938 225.644531 25.3125 C 227.121094 21.109375 229.605469 16.519531 233.527344 14.6875 Z M 229.46875 14.6875 C 227.597656 12.992188 226.136719 10.777344 225.003906 8.457031 C 223.871094 10.777344 222.414062 12.992188 220.542969 14.6875 C 222.414062 16.382812 223.875 18.59375 225.003906 20.917969 C 226.136719 18.59375 227.597656 16.382812 229.46875 14.6875 Z M 229.46875 14.6875 " fill-opacity="1" fill-rule="evenodd"/></g></svg>