<svg xmlns="http://www.w3.org/2000/svg" xmlns:xlink="http://www.w3.org/1999/xlink" zoomAndPan="magnify" preserveAspectRatio="xMidYMid meet" version="1.2" viewBox="17.28 57.05 865.44 29.39"><defs><clipPath id="bfad00c65d"><path d="M 434 57.019531 L 465 57.019531 L 465 86.269531 L 434 86.269531 Z M 434 57.019531 "/></clipPath></defs><g id="1563d15c19"><path style=" stroke:none;fill-rule:nonzero;fill:#000000;fill-opacity:1;" d="M 17.28125 63.875 L 416.636719 63.875 L 416.636719 67.847656 L 17.28125 67.847656 Z M 17.28125 63.875 "/><path style=" stroke:none;fill-rule:nonzero;fill:#000000;fill-opacity:1;" d="M 17.28125 74.21875 L 416.636719 74.21875 L 416.636719 78.191406 L 17.28125 78.191406 Z M 17.28125 74.21875 "/><path style=" stroke:none;fill-rule:nonzero;fill:#000000;fill-opacity:1;" d="M 483.363281 63.875 L 882.71875 63.875 L 882.71875 67.847656 L 483.363281 67.847656 Z M 483.363281 63.875 "/><path style=" stroke:none;fill-rule:nonzero;fill:#000000;fill-opacity:1;" d="M 483.363281 74.21875 L 882.71875 74.21875 L 882.71875 78.191406 L 483.363281 78.191406 Z M 483.363281 74.21875 "/><g clip-rule="nonzero" clip-path="url(#bfad00c65d)"><path style=" stroke:none;fill-rule:nonzero;fill:#000000;fill-opacity:1;" d="M 434.878906 71.75 L 449.445312 57.054688 L 464.007812 71.75 L 449.445312 86.445312 Z M 434.878906 71.75 "/></g></g></svg>