<svg xmlns="http://www.w3.org/2000/svg" xmlns:xlink="http://www.w3.org/1999/xlink" width="16" zoomAndPan="magnify" viewBox="0 0 30 30.000001" height="16" preserveAspectRatio="xMidYMid meet" version="1.0"><defs><clipPath id="2d15a86ac5"><path d="M 2.660156 1 L 27.339844 1 L 27.339844 28.453125 L 2.660156 28.453125 Z M 2.660156 1 " clip-rule="nonzero"/></clipPath></defs><g clip-path="url(#2d15a86ac5)"><path fill="#aa186f" d="M 17.371094 15.570312 L 5.132812 27.808594 C 5.003906 27.9375 4.859375 28.039062 4.691406 28.105469 C 4.523438 28.175781 4.347656 28.210938 4.167969 28.210938 C 3.984375 28.210938 3.8125 28.175781 3.644531 28.105469 C 3.476562 28.039062 3.328125 27.9375 3.203125 27.808594 C 3.074219 27.683594 2.972656 27.535156 2.902344 27.367188 C 2.835938 27.199219 2.800781 27.027344 2.800781 26.84375 C 2.800781 26.664062 2.835938 26.488281 2.902344 26.320312 C 2.972656 26.152344 3.074219 26.007812 3.203125 25.878906 L 14.488281 14.605469 L 3.203125 3.335938 C 3.074219 3.207031 2.976562 3.058594 2.90625 2.890625 C 2.835938 2.722656 2.800781 2.550781 2.800781 2.367188 C 2.800781 2.1875 2.835938 2.011719 2.90625 1.847656 C 2.976562 1.679688 3.074219 1.53125 3.203125 1.402344 C 3.328125 1.273438 3.476562 1.175781 3.644531 1.105469 C 3.8125 1.039062 3.984375 1.003906 4.167969 1.003906 C 4.347656 1.003906 4.523438 1.039062 4.691406 1.105469 C 4.855469 1.175781 5.003906 1.273438 5.132812 1.402344 L 17.371094 13.640625 C 17.5 13.769531 17.597656 13.917969 17.667969 14.082031 C 17.738281 14.25 17.773438 14.425781 17.773438 14.605469 C 17.773438 14.789062 17.738281 14.960938 17.667969 15.128906 C 17.597656 15.296875 17.5 15.445312 17.371094 15.570312 Z M 26.890625 13.640625 L 14.652344 1.402344 C 14.523438 1.273438 14.375 1.175781 14.207031 1.105469 C 14.039062 1.039062 13.867188 1.003906 13.683594 1.003906 C 13.503906 1.003906 13.328125 1.039062 13.164062 1.105469 C 12.996094 1.175781 12.847656 1.273438 12.71875 1.402344 C 12.589844 1.53125 12.492188 1.679688 12.421875 1.847656 C 12.355469 2.011719 12.320312 2.1875 12.320312 2.367188 C 12.320312 2.550781 12.355469 2.722656 12.421875 2.890625 C 12.492188 3.058594 12.59375 3.207031 12.71875 3.335938 L 24.007812 14.605469 L 12.71875 25.878906 C 12.589844 26.007812 12.492188 26.152344 12.421875 26.320312 C 12.351562 26.488281 12.316406 26.664062 12.316406 26.84375 C 12.316406 27.027344 12.351562 27.199219 12.421875 27.367188 C 12.492188 27.535156 12.589844 27.683594 12.71875 27.808594 C 12.847656 27.9375 12.996094 28.039062 13.164062 28.105469 C 13.328125 28.175781 13.503906 28.210938 13.683594 28.210938 C 13.867188 28.210938 14.042969 28.175781 14.207031 28.105469 C 14.375 28.039062 14.523438 27.9375 14.652344 27.808594 L 26.890625 15.570312 C 27.015625 15.445312 27.117188 15.296875 27.1875 15.128906 C 27.257812 14.960938 27.292969 14.789062 27.292969 14.605469 C 27.292969 14.425781 27.257812 14.25 27.1875 14.082031 C 27.117188 13.917969 27.015625 13.769531 26.890625 13.640625 Z M 26.890625 13.640625 " fill-opacity="1" fill-rule="nonzero"/></g></svg>